# xmcd CD database file
#
# Track frame offsets:
#	180
#	27379
#	48737
#	56662
#	75152
#	103640
#	119831
#	147172
#	166488
#	195565
#	212886
#	225869
#	238531
#	269324
#
# Disc length: 3840 seconds
#
# Revision: 1
# Processed by: cddbd v1.4PL0 Copyright (c) Steve Scherf et al.
# Submitted via: CDex 1.50
#
DISCID=c00efe0e
DTITLE=Rüdiger Gleisberg - Chronicle 1986-93
DYEAR=1994
DGENRE=New Age
TTITLE0=inZeit - outZeit Part 1
TTITLE1=inZeit - outZeit Part 2
TTITLE2=inZeit - outZeit Part 3
TTITLE3=inZeit - outZeit Part 4
TTITLE4=inZeit - outZeit Part 5
TTITLE5=inZeit - outZeit Part 6
TTITLE6=Chronicle
TTITLE7=Dream Operator
TTITLE8=Samadhi
TTITLE9=Kaschmer (part 1)
TTITLE10=Kaschmer (part 2)
TTITLE11=Kaschmer (part 3)
TTITLE12=Initiation Ritual
TTITLE13=Erotica Exotica
EXTD=YEAR: 1994
EXTT0=
EXTT1=
EXTT2=
EXTT3=
EXTT4=
EXTT5=
EXTT6=
EXTT7=
EXTT8=
EXTT9=
EXTT10=
EXTT11=
EXTT12=
EXTT13=
PLAYORDER=
